<?xml version="1.0" encoding="UTF-8" standalone="no"?>
<!-- Created with Inkscape (http://www.inkscape.org/) -->

<svg
   version="1.1"
   id="svg2574"
   xml:space="preserve"
   width="530.66669"
   height="530.66669"
   viewBox="0 0 530.66669 530.66669"
   sodipodi:docname="bear-outline-silhouette-color.svg"
   inkscape:version="1.1.2 (b8e25be833, 2022-02-05)"
   xmlns:inkscape="http://www.inkscape.org/namespaces/inkscape"
   xmlns:sodipodi="http://sodipodi.sourceforge.net/DTD/sodipodi-0.dtd"
   xmlns="http://www.w3.org/2000/svg"
   xmlns:svg="http://www.w3.org/2000/svg"><defs
     id="defs2578"><clipPath
       clipPathUnits="userSpaceOnUse"
       id="clipPath2588"><path
         d="M 0,398 H 398 V 0 H 0 Z"
         id="path2586" /></clipPath></defs><sodipodi:namedview
     id="namedview2576"
     pagecolor="#ffffff"
     bordercolor="#666666"
     borderopacity="1.0"
     inkscape:pageshadow="2"
     inkscape:pageopacity="0.0"
     inkscape:pagecheckerboard="0"
     showgrid="false"
     inkscape:zoom="1.5244974"
     inkscape:cx="265.33334"
     inkscape:cy="265.33334"
     inkscape:window-width="1920"
     inkscape:window-height="1018"
     inkscape:window-x="-8"
     inkscape:window-y="-8"
     inkscape:window-maximized="1"
     inkscape:current-layer="g2580" /><g
     id="g2580"
     inkscape:groupmode="layer"
     inkscape:label="bear-outline-silhouette-color"
     transform="matrix(1.3333333,0,0,-1.3333333,0,530.66667)"><g
       id="g2582"><g
         id="g2584"
         clip-path="url(#clipPath2588)"><path
           d="m 279.983,223.286 c 0.061,0.408 0.198,0.836 0.412,1.282 l -0.205,1.188 c -0.238,0.34 -0.69,0.968 -1.008,1.406 l -4.252,-2.364 z"
           style="fill:#d18e00;fill-opacity:1;fill-rule:nonzero;stroke:none"
           id="path2590" /><path
           d="m 275.401,166.856 c -0.299,2.047 0.382,2.402 2.046,1.051 l 1.024,0.055 c 0.465,0.108 1.378,0.327 1.842,0.435 l 0.846,0.478 c 0.381,0.287 1.132,0.86 1.515,1.146 0.354,0.355 1.063,1.065 1.404,1.42 l -0.014,1.146 c 0.016,0.855 0.037,1.711 0.055,2.567 L 272.96,167.47 c 0.614,-0.151 1.841,-0.449 2.441,-0.614"
           style="fill:#82967e;fill-opacity:1;fill-rule:nonzero;stroke:none"
           id="path2592" /><path
           d="m 268.464,169.392 c 0.025,-0.014 0.051,-0.027 0.075,-0.039 0.805,-0.41 2.401,-1.201 3.206,-1.61 l 1.214,-0.273 h 10e-4 l 11.159,7.684 c 0.128,6.051 0.319,12.109 0.547,18.158 l 0.054,1.323 c -0.218,2.197 -0.409,4.38 -0.587,6.563 -1.651,2.127 -1.842,4.911 -0.955,7.38 -0.109,0.929 -0.327,2.771 -0.436,3.697 l -1.078,0.452 0.055,1.186 c 0.013,0.941 0.026,2.811 0.04,3.738 -0.068,0.628 -0.219,1.883 -0.299,2.511 -1.161,0.885 -1.652,1.923 -1.477,3.124 l -5.053,1.512 z"
           style="fill:#a8c044;fill-opacity:1;fill-rule:nonzero;stroke:none"
           id="path2594" /><path
           d="m 279.182,227.162 c -0.067,0.091 -0.127,0.174 -0.178,0.244 -0.015,0.601 -0.056,1.787 -0.068,2.375 l 0.012,1.228 c -0.327,0.763 -0.968,2.292 -1.296,3.055 -0.041,0.628 -0.094,1.883 -0.136,2.511 -0.341,0.764 -1.05,2.279 -1.391,3.042 l 0.026,1.256 c -0.381,0.736 -1.118,2.211 -1.487,2.947 -0.272,0.75 -0.791,2.264 -1.063,3.014 l -0.341,1.092 c -0.315,0.356 -0.942,1.079 -1.256,1.432 l -0.287,1.066 c -0.191,0.75 -0.6,2.264 -0.805,3.014 l -0.559,1.024 c -0.232,0.477 -0.709,1.433 -0.956,1.91 l -0.462,0.968 c -0.219,0.465 -0.683,1.379 -0.902,1.829 l -0.464,0.928 c -0.231,0.449 -0.695,1.336 -0.913,1.787 l -0.477,0.914 c -0.233,0.436 -0.71,1.31 -0.943,1.747 l -0.49,0.887 c -0.124,0.213 -0.31,0.537 -0.495,0.86 l 10.679,-41.494 z"
           style="fill:#d89b00;fill-opacity:1;fill-rule:nonzero;stroke:none"
           id="path2596" /><path
           d="m 239.252,207.039 11.874,-17.912 c 0.229,0.582 0.464,1.179 0.617,1.565 l 0.409,0.996 c 0.191,0.437 0.56,1.295 0.75,1.733 l 0.192,0.927 0.164,0.901 0.696,0.137 c 0.341,0.053 1.01,0.149 1.35,0.204 0.532,0.026 1.597,0.068 2.129,0.095 0.341,-0.109 1.023,-0.328 1.364,-0.436 0.26,-0.301 0.777,-0.901 1.05,-1.201 l 0.465,-0.764 c 0.191,-0.451 0.573,-1.351 0.763,-1.801 0.233,-0.737 0.696,-2.211 0.929,-2.933 l 0.286,-1.188 c 0.3,-0.395 0.899,-1.2 1.2,-1.595 0.574,-1.802 0.655,-3.726 0.382,-5.594 -0.19,-0.438 -0.572,-1.296 -0.763,-1.734 0.04,-0.545 0.136,-1.651 0.177,-2.197 0.122,-0.476 0.368,-1.459 0.505,-1.936 l 0.382,-0.928 c 0.219,-0.423 0.668,-1.27 0.887,-1.692 l 0.517,-0.832 0.943,-0.478 c 0.481,-0.247 1.419,-0.717 1.944,-0.984 l 6.466,55.406 z"
           style="fill:#a9dd39;fill-opacity:1;fill-rule:nonzero;stroke:none"
           id="path2598" /><path
           d="m 233.854,294.664 c -0.222,0.282 -0.448,0.569 -0.598,0.757 -0.204,0.449 -0.641,1.336 -0.86,1.773 -2.127,0.599 -2.168,1.337 -0.122,2.21 l 0.3,1.023 c 0.197,0.434 0.583,1.27 0.794,1.721 l -6.223,-1.635 z"
           style="fill:#e97500;fill-opacity:1;fill-rule:nonzero;stroke:none"
           id="path2600" /><path
           d="m 261.185,271.12 -0.587,0.818 c -0.286,0.397 -0.887,1.161 -1.173,1.557 -0.315,0.354 -0.943,1.077 -1.241,1.445 -0.328,0.341 -0.97,1.024 -1.283,1.365 -0.329,0.328 -0.997,0.982 -1.324,1.311 -0.354,0.313 -1.037,0.94 -1.378,1.254 -0.368,0.315 -1.092,0.913 -1.446,1.229 l -0.9,0.409 c -0.315,0.314 -0.955,0.955 -1.27,1.282 -0.395,0.286 -1.187,0.874 -1.582,1.159 -0.41,0.287 -1.229,0.874 -1.638,1.16 l -0.859,0.586 c -0.423,0.288 -1.255,0.861 -1.665,1.16 -0.422,0.288 -1.254,0.846 -1.678,1.133 l -0.846,0.587 c -0.394,0.264 -1.169,0.805 -1.591,1.101 l 20.92,-18.237 c -0.175,0.259 -0.343,0.507 -0.459,0.681"
           style="fill:#e97500;fill-opacity:1;fill-rule:nonzero;stroke:none"
           id="path2602" /><path
           d="m 233.368,302.148 c 0.008,0.018 0.017,0.037 0.025,0.053 0.3,0.367 0.873,1.077 1.159,1.433 0.328,0.314 0.983,0.94 1.31,1.254 0.286,0.314 0.887,0.928 1.188,1.228 l 0.858,0.397 c 0.382,0.272 1.133,0.818 1.515,1.091 0.41,0.273 1.201,0.819 1.61,1.091 l 0.846,0.559 c 0.424,0.26 1.255,0.806 1.678,1.064 0.355,0.3 1.051,0.902 1.406,1.203 l 0.981,0.34 c 0.424,0.273 1.283,0.804 1.72,1.077 l 0.887,0.56 c 0.423,0.273 1.268,0.832 1.691,1.105 0.409,0.273 1.242,0.832 1.652,1.119 l 0.832,0.558 c 0.395,0.288 1.186,0.834 1.583,1.119 0.381,0.274 1.131,0.819 1.501,1.106 0.299,0.3 0.886,0.913 1.186,1.227 l 0.832,0.396 c 0.327,0.329 0.969,0.955 1.296,1.268 0.301,0.357 0.901,1.08 1.201,1.433 l -0.041,1.038 c 0.245,0.641 0.737,1.91 0.983,2.551 l -0.287,0.997 c -0.205,0.449 -0.614,1.322 -0.833,1.759 l -0.873,0.341 c -0.313,0.288 -0.94,0.886 -1.241,1.174 l -0.887,0.422 c -0.45,0.205 -1.336,0.586 -1.788,0.791 l -0.926,0.369 -0.997,0.3 c -0.341,0.301 -1.037,0.901 -1.377,1.215 -0.779,0.218 -2.32,0.682 -3.098,0.901 l -1.092,0.504 c -0.505,0.205 -1.528,0.615 -2.046,0.82 l -1.037,0.393 -1.05,0.315 c -0.169,0.149 -0.418,0.369 -0.67,0.593 l -15.92,-36.799 z"
           style="fill:#e75700;fill-opacity:1;fill-rule:nonzero;stroke:none"
           id="path2604" /><path
           d="m 220.455,97.743 c 0.27,-0.841 0.729,-2.293 0.973,-3.048 l 0.546,-1.091 c 0.258,-0.505 0.762,-1.514 1.022,-2.006 l 0.505,-1.009 c 0.301,-0.356 0.887,-1.092 1.174,-1.461 l 0.286,-0.899 c 0.273,-0.355 0.833,-1.038 1.105,-1.378 0.287,-0.315 0.86,-0.942 1.147,-1.256 0.327,-0.287 0.954,-0.873 1.267,-1.16 0.356,-0.273 1.066,-0.819 1.419,-1.078 l 0.861,-0.409 c 0.3,-0.327 0.9,-0.969 1.2,-1.282 2.019,0.927 3.493,0.409 4.448,-1.543 2.715,-0.026 5.444,-0.163 8.172,-0.285 l 1.311,0.04 c 0.982,0.041 2.947,0.137 3.928,0.191 0.819,0.246 2.456,0.737 3.275,0.996 0.086,-0.002 0.185,-0.003 0.292,-0.005 l -29.309,41.87 z"
           style="fill:#009089;fill-opacity:1;fill-rule:nonzero;stroke:none"
           id="path2606" /><path
           d="m 253.386,81.06 c 0.655,-0.012 1.635,-0.024 2.164,-0.036 0.013,1.583 0.681,2.838 1.992,3.793 -0.245,0.287 -0.737,0.86 -0.982,1.146 -0.232,0.287 -0.696,0.846 -0.928,1.133 -0.232,0.314 -0.709,0.914 -0.942,1.214 -0.245,0.354 -0.722,1.079 -0.968,1.432 l -0.492,0.819 c -0.217,0.477 -0.641,1.406 -0.845,1.87 l -0.356,1.09 c -2.987,1.693 -3.124,4.38 -0.408,8.079 l 0.15,1.213 0.041,1.228 c 0.246,0.751 0.764,2.224 1.009,2.96 l 0.204,1.187 0.096,1.215 c 0.287,0.724 0.847,2.183 1.132,2.907 l 0.096,1.241 c 0.3,0.791 0.887,2.374 1.188,3.165 0.067,0.628 0.204,1.896 0.273,2.524 0.285,0.805 0.859,2.402 1.145,3.193 0.082,0.628 0.232,1.883 0.314,2.497 -0.045,0.091 -0.084,0.183 -0.124,0.276 l -33.068,-2.276 z"
           style="fill:#009b87;fill-opacity:1;fill-rule:nonzero;stroke:none"
           id="path2608" /><path
           d="m 274.93,224.798 -10.679,41.494 c -0.181,0.318 -0.359,0.635 -0.474,0.845 -0.135,0.16 -0.326,0.389 -0.522,0.624 l -24.003,-60.722 z"
           style="fill:#ddce00;fill-opacity:1;fill-rule:nonzero;stroke:none"
           id="path2610" /><path
           d="m 243.065,337.312 c -0.279,0.247 -0.563,0.498 -0.75,0.662 -0.763,0.205 -2.305,0.641 -3.07,0.846 l -1.05,0.505 c -0.505,0.205 -1.514,0.614 -2.019,0.819 l -1.01,0.369 -1.037,0.313 c -0.341,0.314 -1.024,0.942 -1.364,1.256 -0.751,0.189 -2.251,0.586 -3.002,0.791 l -1.024,0.518 c -0.489,0.218 -1.459,0.641 -1.936,0.859 l -1.023,0.328 -1.051,0.109 c -0.41,0.245 -1.214,0.722 -1.624,0.969 l -0.372,0.095 4.412,-45.238 z"
           style="fill:#ec5000;fill-opacity:1;fill-rule:nonzero;stroke:none"
           id="path2612" /><path
           d="m 239.252,207.039 24.003,60.722 c -0.239,0.286 -0.486,0.58 -0.651,0.767 l -0.069,0.207 L 211,270 Z"
           style="fill:#eecb00;fill-opacity:1;fill-rule:nonzero;stroke:none"
           id="path2614" /><path
           d="m 224.077,122.93 33.068,2.276 c -0.81,1.891 -0.458,4.08 1.01,5.563 -0.002,0.127 -0.004,0.273 -0.005,0.431 l -31.49,29.99 z"
           style="fill:#1cc078;fill-opacity:1;fill-rule:nonzero;stroke:none"
           id="path2616" /><path
           d="m 258.15,131.2 c -0.011,1.007 -0.021,2.534 -0.021,3.349 -0.26,0.381 -0.778,1.159 -1.037,1.541 -0.014,0.859 -0.069,2.552 -0.096,3.397 l -0.191,1.133 c -0.191,0.518 -0.546,1.555 -0.723,2.087 l -0.341,1.119 c -0.341,0.723 -1.023,2.184 -1.364,2.906 l 0.026,1.242 c -0.381,0.736 -1.145,2.197 -1.527,2.933 l -0.15,1.228 c -0.218,0.777 -0.627,2.345 -0.846,3.124 -0.342,0.342 -1.037,0.996 -1.379,1.337 -0.095,0.588 -0.272,1.747 -0.367,2.333 l -0.042,1.242 c -0.185,0.608 -0.495,1.691 -0.742,2.532 l -22.69,-1.513 z"
           style="fill:#30bc7c;fill-opacity:1;fill-rule:nonzero;stroke:none"
           id="path2618" /><path
           d="m 226.66,161.19 22.69,1.513 c -0.079,0.272 -0.153,0.519 -0.213,0.715 -0.04,0.642 -0.149,1.924 -0.191,2.565 -2.005,1.119 -2.115,3.575 -1.132,5.416 v 1.188 c -0.997,1.842 -0.873,4.297 1.106,5.457 0.04,0.654 0.108,1.951 0.148,2.593 -0.886,2.046 -0.422,4.42 1.216,5.934 l 0.314,1.214 c 0.133,0.338 0.329,0.834 0.528,1.342 l -11.874,17.912 z"
           style="fill:#72d26e;fill-opacity:1;fill-rule:nonzero;stroke:none"
           id="path2620" /><path
           d="m 211,270 51.535,-1.265 -0.245,0.747 c -0.157,0.236 -0.408,0.607 -0.646,0.957 l -20.92,18.237 c -0.016,0.011 -0.032,0.021 -0.046,0.031 -0.382,0.273 -1.172,0.847 -1.555,1.133 l -0.777,0.573 c -0.369,0.285 -1.078,0.859 -1.447,1.132 -0.314,0.301 -0.968,0.887 -1.295,1.187 -0.301,0.314 -0.916,0.942 -1.215,1.256 -0.136,0.168 -0.334,0.42 -0.535,0.676 l -6.709,5.849 z"
           style="fill:#f49b00;fill-opacity:1;fill-rule:nonzero;stroke:none"
           id="path2622" /><path
           d="M 164.021,247.399 182.426,196.869 211,270 Z"
           style="fill:#ffed00;fill-opacity:1;fill-rule:nonzero;stroke:none"
           id="path2624" /><path
           d="m 211.06,116.421 c 0.248,-0.352 0.514,-0.733 0.681,-0.974 0.273,-0.423 0.804,-1.255 1.077,-1.678 l 0.533,-0.901 c 0.245,-0.449 0.75,-1.35 0.995,-1.801 l 0.477,-0.968 c 0.233,-0.464 0.697,-1.405 0.914,-1.882 l 0.438,-0.997 c 0.245,-0.409 0.75,-1.241 1.01,-1.663 l 0.163,-1.066 0.396,-1.023 c 0.191,-0.491 0.572,-1.473 0.763,-1.979 l 0.383,-1.022 c 0.299,-0.368 0.927,-1.106 1.228,-1.474 l 0.286,-1.092 c 0.017,-0.049 0.034,-0.102 0.051,-0.158 l 3.622,25.187 z"
           style="fill:#07af7f;fill-opacity:1;fill-rule:nonzero;stroke:none"
           id="path2626" /><path
           d="M 239.252,207.039 182.426,196.869 226.66,161.19 Z"
           style="fill:#aef24a;fill-opacity:1;fill-rule:nonzero;stroke:none"
           id="path2628" /><path
           d="m 211,270 -28.574,-73.131 56.826,10.17 z"
           style="fill:#eaf100;fill-opacity:1;fill-rule:nonzero;stroke:none"
           id="path2630" /><path
           d="m 205.573,348.739 c -0.763,0.327 -2.305,0.996 -3.069,1.324 l -1.242,-0.096 c -0.723,0.369 -2.183,1.104 -2.92,1.473 l -1.228,-0.081 c -0.736,0.369 -2.197,1.092 -2.933,1.459 -0.737,0.369 -2.21,1.106 -2.948,1.475 l -1.241,0.013 c -0.736,0.286 -2.21,0.874 -2.947,1.173 h -1.105 c -0.422,-0.231 -1.242,-0.696 -1.651,-0.927 l -1.05,-0.123 -0.451,-1.01 c -0.218,-0.478 -0.668,-1.445 -0.887,-1.923 l -0.299,-1.037 c -0.288,-0.369 -0.874,-1.133 -1.173,-1.501 -0.274,-0.424 -0.832,-1.282 -1.119,-1.706 -0.288,-0.409 -0.86,-1.241 -1.161,-1.664 l -0.586,-0.859 c -0.286,-0.41 -0.873,-1.229 -1.16,-1.625 -0.286,-0.396 -0.859,-1.186 -1.145,-1.582 l -0.383,-0.915 c -0.3,-0.327 -0.914,-0.968 -1.228,-1.295 -0.273,-0.382 -0.832,-1.146 -1.105,-1.515 -0.272,-0.382 -0.818,-1.147 -1.092,-1.527 l -0.341,-0.902 c -0.299,-0.327 -0.886,-0.982 -1.172,-1.323 -0.233,-0.409 -0.697,-1.241 -0.928,-1.65 l -0.356,-0.928 c -0.313,-0.327 -0.926,-0.97 -1.241,-1.282 0,-0.601 0.014,-1.815 0.014,-2.416 -0.274,-0.422 -0.832,-1.283 -1.105,-1.706 -0.355,-6.711 -0.655,-13.425 -0.996,-20.137 l -0.008,-0.366 40.28,43.178 c -0.008,10e-4 -0.016,10e-4 -0.024,10e-4"
           style="fill:#ff5f00;fill-opacity:1;fill-rule:nonzero;stroke:none"
           id="path2632" /><path
           d="m 226.66,161.19 -24.102,-36.473 c 0.423,-0.293 1.095,-0.762 1.446,-1.015 l 0.791,-0.601 c 0.383,-0.314 1.134,-0.942 1.501,-1.241 0.342,-0.328 1.037,-0.997 1.378,-1.324 0.315,-0.341 0.956,-1.051 1.283,-1.391 0.314,-0.314 0.955,-0.928 1.269,-1.229 l 0.41,-0.899 c 0.112,-0.156 0.263,-0.37 0.424,-0.596 l 13.017,6.509 z"
           style="fill:#30c878;fill-opacity:1;fill-rule:nonzero;stroke:none"
           id="path2634" /><path
           d="m 156.111,175.559 28.96,-59.157 c 0.278,0.433 0.793,1.265 1.06,1.678 0.273,0.424 0.806,1.269 1.078,1.678 l 0.532,0.874 c 0.259,0.41 0.778,1.228 1.037,1.638 l 0.355,0.899 c 0.3,0.314 0.9,0.955 1.201,1.269 0.327,0.341 0.968,1.01 1.296,1.338 l 0.723,0.615 c 0.395,0.256 1.173,0.75 1.569,1.007 l -0.041,0.929 0.655,0.151 0.355,-0.915 1.009,0.027 0.996,0.191 0.983,0.191 0.682,-0.668 0.901,-0.327 c 0.327,-0.301 0.981,-0.874 1.309,-1.16 0.409,-0.247 1.227,-0.738 1.636,-0.997 0.045,-0.031 0.096,-0.066 0.151,-0.103 l 24.102,36.473 z"
           style="fill:#6ae272;fill-opacity:1;fill-rule:nonzero;stroke:none"
           id="path2636" /><path
           d="m 222.733,345.751 -0.747,0.191 c -0.762,0.259 -2.292,0.791 -3.055,1.051 -0.615,0.095 -1.857,0.3 -2.47,0.395 -1.815,-0.804 -3.315,-0.436 -4.503,1.106 -2.134,0.081 -4.255,0.163 -6.361,0.244 l -40.28,-43.178 -0.019,-0.944 c 1.301,-2.225 0.678,-4.872 -1.087,-6.603 l 62.934,2.5 z"
           style="fill:#ff7300;fill-opacity:1;fill-rule:nonzero;stroke:none"
           id="path2638" /><path
           d="m 227.145,300.513 -62.934,-2.5 c -0.086,-0.084 -0.174,-0.167 -0.265,-0.246 l -0.382,-1.132 -0.013,-1.201 0.007,-0.555 L 211,270 Z"
           style="fill:#ff9c00;fill-opacity:1;fill-rule:nonzero;stroke:none"
           id="path2640" /><path
           d="M 182.426,196.869 156.111,175.559 226.66,161.19 Z"
           style="fill:#adf565;fill-opacity:1;fill-rule:nonzero;stroke:none"
           id="path2642" /><path
           d="m 211,270 -47.442,24.879 0.006,-0.606 -0.777,-0.572 -0.341,-0.9 c -0.287,-0.327 -0.887,-0.984 -1.174,-1.311 -0.231,-0.435 -0.681,-1.322 -0.914,-1.76 l -0.491,-0.9 c -0.153,-0.272 -0.402,-0.71 -0.628,-1.106 l 4.782,-40.325 z"
           style="fill:#ffb900;fill-opacity:1;fill-rule:nonzero;stroke:none"
           id="path2644" /><path
           d="m 164.021,247.399 -18.623,-28.244 c -0.036,-0.503 -0.183,-1.031 -0.443,-1.585 0.082,-0.955 0.232,-2.879 0.314,-3.835 1.591,-1.458 2.147,-3.606 1.565,-5.585 l 35.592,-11.281 z"
           style="fill:#ffff00;fill-opacity:1;fill-rule:nonzero;stroke:none"
           id="path2646" /><path
           d="m 180.387,108.653 0.532,0.913 c 0.26,0.437 0.765,1.311 1.023,1.747 l 0.315,0.997 c 0.3,0.353 0.887,1.078 1.186,1.445 0.274,0.437 0.792,1.296 1.065,1.733 l 0.546,0.887 c 0.006,0.009 0.011,0.019 0.017,0.027 l -28.96,59.157 -15.383,-21.25 c -0.252,-0.844 -0.6,-1.972 -0.794,-2.597 -0.081,-0.6 -0.259,-1.802 -0.355,-2.4 l -0.095,-1.188 c 1.187,-2.224 0.942,-4.98 -1.079,-6.645 0.028,-4.393 0.193,-8.813 0.369,-13.207 0.192,-3.984 0.26,-7.94 0.505,-11.937 0.028,-0.701 0.052,-1.402 0.076,-2.104 l 40.47,-6.572 c 0.208,0.367 0.425,0.751 0.562,0.994"
           style="fill:#83e76f;fill-opacity:1;fill-rule:nonzero;stroke:none"
           id="path2648" /><path
           d="m 154.901,67.654 c 6.686,0.095 13.453,0 20.179,0.314 0.45,0.518 1.351,1.528 1.801,2.033 l 0.477,0.913 -0.477,0.847 c -0.232,0.368 -0.695,1.091 -0.928,1.46 -0.245,0.313 -0.723,0.955 -0.955,1.268 -0.245,0.328 -0.736,0.955 -0.982,1.269 -0.259,0.341 -0.778,1.038 -1.037,1.379 -0.259,0.422 -0.764,1.268 -1.01,1.69 -0.437,0.588 -1.296,1.747 -1.719,2.335 -0.055,0.599 -0.164,1.8 -0.218,2.4 -0.886,1.83 -0.464,3.247 1.269,4.257 l 0.122,1.309 c 0.109,0.328 0.257,0.781 0.411,1.266 L 146.78,69.104 c 0.639,-0.056 1.755,-0.157 2.323,-0.208 1.992,0.778 4.366,0.491 5.798,-1.242"
           style="fill:#3b9f87;fill-opacity:1;fill-rule:nonzero;stroke:none"
           id="path2650" /><path
           d="m 172.528,92.581 0.505,1.228 c 0.233,0.845 0.696,2.538 0.928,3.383 l 0.423,1.037 c 0.355,0.26 1.051,0.778 1.405,1.038 l 0.027,1.037 c 0.205,0.409 0.628,1.227 0.847,1.636 l 0.245,0.996 c 0.273,0.369 0.819,1.105 1.091,1.473 l 0.273,0.983 c 0.288,0.369 0.832,1.119 1.12,1.501 0.108,0.193 0.267,0.474 0.433,0.766 l -40.47,6.572 c 0.095,-2.796 0.165,-5.598 0.197,-8.402 0.068,-9.182 -0.627,-18.338 -0.901,-27.506 0.096,-1.569 0.233,-3.138 0.451,-4.707 0.232,-0.423 0.723,-1.269 0.968,-1.706 l 0.832,-0.587 c 0.464,-0.217 1.379,-0.654 1.828,-0.872 l 1.051,-0.328 c 0.724,-0.245 2.17,-0.75 2.893,-1.01 0.034,-0.003 0.069,-0.006 0.106,-0.009 l 25.054,21.29 c 0.252,0.787 0.525,1.654 0.694,2.187"
           style="fill:#69c175;fill-opacity:1;fill-rule:nonzero;stroke:none"
           id="path2652" /><path
           d="m 143.836,167.191 c -0.047,-0.345 -0.091,-0.67 -0.122,-0.908 0.777,-1.787 0.382,-3.274 -1.174,-4.434 l -0.082,-1.254 c -0.313,-0.793 -0.928,-2.374 -1.241,-3.165 -0.082,-0.629 -0.233,-1.898 -0.315,-2.525 -0.048,-0.169 -0.108,-0.373 -0.174,-0.596 l 15.383,21.25 z"
           style="fill:#c5fd45;fill-opacity:1;fill-rule:nonzero;stroke:none"
           id="path2654" /><path
           d="m 159.239,287.724 c -0.135,-0.239 -0.261,-0.462 -0.354,-0.626 l -0.3,-0.983 c -0.301,-0.354 -0.873,-1.078 -1.174,-1.446 -0.259,-0.423 -0.777,-1.296 -1.022,-1.732 l -0.533,-0.887 c -0.259,-0.438 -0.778,-1.296 -1.037,-1.734 l -0.314,-0.968 c -0.3,-0.369 -0.887,-1.077 -1.173,-1.433 -0.259,-0.423 -0.791,-1.282 -1.051,-1.705 l -0.532,-0.873 c -0.272,-0.424 -0.805,-1.269 -1.063,-1.678 -0.274,-0.424 -0.806,-1.269 -1.065,-1.679 l -0.532,-0.873 c -0.246,-0.409 -0.765,-1.242 -1.01,-1.665 l -0.3,-0.955 c -0.273,-0.341 -0.832,-1.036 -1.119,-1.39 -0.218,-0.424 -0.681,-1.283 -0.914,-1.706 l -0.45,-0.901 c -0.205,-0.464 -0.614,-1.364 -0.832,-1.814 l -0.397,-0.943 -0.327,-0.995 c -0.313,-0.341 -0.941,-1.009 -1.241,-1.337 -0.205,-0.818 -0.6,-2.428 -0.805,-3.233 -0.049,-0.193 -0.114,-0.445 -0.184,-0.72 l 22.511,-8.049 z"
           style="fill:#ffc100;fill-opacity:1;fill-rule:nonzero;stroke:none"
           id="path2656" /><path
           d="m 182.426,196.869 -35.592,11.281 c -0.131,-0.446 -0.32,-0.884 -0.569,-1.304 l -0.028,-1.296 c 0.013,-3.082 0.054,-6.169 0.083,-9.258 l 9.791,-20.733 z"
           style="fill:#f7ff2b;fill-opacity:1;fill-rule:nonzero;stroke:none"
           id="path2658" /><path
           d="m 141.51,255.448 c -0.158,-0.62 -0.344,-1.355 -0.457,-1.791 -0.286,-0.846 -0.847,-2.523 -1.132,-3.37 -0.083,-4.025 0,-8.077 0,-12.115 0.3,-0.806 0.873,-2.415 1.173,-3.22 l 0.041,-1.228 c 0.327,-0.682 0.969,-2.02 1.296,-2.703 l 0.013,-1.2 0.014,-1.227 c 0.272,-0.696 0.818,-2.115 1.091,-2.81 l 0.083,-1.216 c 0.095,-0.613 0.272,-1.827 0.354,-2.427 1.023,-0.883 1.491,-1.874 1.412,-2.986 l 18.623,28.244 z"
           style="fill:#fff400;fill-opacity:1;fill-rule:nonzero;stroke:none"
           id="path2660" /><path
           d="m 146.32,196.292 c 0.037,-3.858 0.055,-7.719 -0.028,-11.575 l 0.027,-1.27 c 0.93,-1.661 0.955,-3.579 0.173,-5.19 l 9.619,-2.698 z"
           style="fill:#ffff05;fill-opacity:1;fill-rule:nonzero;stroke:none"
           id="path2662" /><path
           d="m 146.492,178.257 c -0.298,-0.612 -0.711,-1.181 -1.237,-1.673 -0.055,-0.627 -0.15,-1.883 -0.205,-2.51 0.014,-0.941 0.041,-2.811 0.041,-3.752 l 0.027,-1.186 -1.077,-0.424 c -0.051,-0.376 -0.132,-0.974 -0.205,-1.521 l 12.275,8.368 z"
           style="fill:#ffff33;fill-opacity:1;fill-rule:nonzero;stroke:none"
           id="path2664" /></g></g></g></svg>
